<mxfile host="app.diagrams.net" modified="2024-01-15T10:54:24.982Z" agent="Mozilla/5.0 (Windows NT 10.0; Win64; x64) AppleWebKit/537.36 (KHTML, like Gecko) Chrome/120.0.0.0 Safari/537.36" version="22.1.18" etag="9OvkOfwO38rvaokKQPsy" type="github">
  <diagram name="Trang-1" id="KaufSzghIt-5WB7J9jd6">
    <mxGraphModel>
      <root>
        <mxCell id="0" />
        <mxCell id="1" parent="0" />
      </root>
    </mxGraphModel>
  </diagram>
</mxfile>
